<svg id="Layer_1" data-name="Layer 1" xmlns="http://www.w3.org/2000/svg" viewBox="0 0 252.41 176.79"><title>poliferate_logo</title><rect x="89.08" y="99.5" width="18" height="22.5" rx="1" ry="1" style="fill:#5e93c6"/><rect x="89.08" width="18" height="92.5" rx="1" ry="1" style="fill:#d5304e"/><rect x="63.2" y="104" width="18" height="18" rx="1" ry="1" style="fill:#5e93c6"/><rect x="63.2" width="18" height="97" rx="1" ry="1" style="fill:#d5304e"/><rect x="114.95" y="77" width="18" height="45" rx="1" ry="1" style="fill:#5e93c6"/><rect x="114.95" width="18" height="70" rx="1" ry="1" style="fill:#d5304e"/><rect x="140.83" y="54.5" width="18" height="67.5" rx="1" ry="1" style="fill:#5e93c6"/><rect x="140.83" width="18" height="47.5" rx="1" ry="1" style="fill:#d5304e"/><rect x="166.7" y="32" width="18" height="90" rx="1" ry="1" style="fill:#5e93c6"/><rect x="166.7" width="18" height="25" rx="1" ry="1" style="fill:#d5304e"/><path d="M9.75,160.81H7.35a1.46,1.46,0,0,0-1.49,1.6v12.3a1.59,1.59,0,0,1-1.6,1.5H1.44A1.51,1.51,0,0,1,0,174.77V139.72a1.57,1.57,0,0,1,1.49-1.55H9.75c3.89,0,6.23.75,8,2.45,2,2,3,4.8,3,8.69C20.77,157.3,17.37,160.81,9.75,160.81Zm-1.33-17.2H7.35a1.47,1.47,0,0,0-1.49,1.54v8.74a1.34,1.34,0,0,0,1.49,1.49H8.42c4.68,0,6.23-1.44,6.23-5.7C14.65,145,13.21,143.61,8.42,143.61Z" style="fill:#f1ecc8"/><path d="M47.88,173.12c-1.86,2.45-4.68,3.67-8.25,3.67s-6.61-1.33-8.21-3.67-2.18-4.69-2.18-9v-13.8c0-4.32.64-7,2.18-9.06,1.76-2.39,4.53-3.62,8.21-3.62s6.6,1.28,8.25,3.62,2.19,4.74,2.19,9.06v13.8C50.07,168.43,49.43,171,47.88,173.12ZM44.1,150.43c0-5.44-1.17-7.3-4.47-7.3s-4.48,1.86-4.48,7.3v13.63c0,5.38,1.07,7.25,4.48,7.25s4.47-1.87,4.47-7.25Z" style="fill:#f1ecc8"/><path d="M76,176.21H61.41a1.49,1.49,0,0,1-1.49-1.5v-35a1.47,1.47,0,0,1,1.49-1.55h2.82a1.5,1.5,0,0,1,1.6,1.55v29.51a1.4,1.4,0,0,0,1.44,1.54H76c1,0,1.49.54,1.49,1.55v2.39A1.46,1.46,0,0,1,76,176.21Z" style="fill:#f1ecc8"/><path d="M90.12,176.21H87.24a1.52,1.52,0,0,1-1.49-1.44v-35.1a1.46,1.46,0,0,1,1.49-1.5h2.93a1.56,1.56,0,0,1,1.49,1.44v35.16A1.61,1.61,0,0,1,90.12,176.21Z" style="fill:#f1ecc8"/><path d="M118.4,143.61h-8.47a1.61,1.61,0,0,0-1.44,1.6v6.87a1.56,1.56,0,0,0,1.44,1.49h7.25a1.75,1.75,0,0,1,1.54,1.65v2.29a1.8,1.8,0,0,1-1.54,1.49h-7.25a1.66,1.66,0,0,0-1.49,1.55v14.11a1.81,1.81,0,0,1-1.54,1.55h-2.83a1.87,1.87,0,0,1-1.49-1.55V139.72a1.51,1.51,0,0,1,1.49-1.55H118.4a1.49,1.49,0,0,1,1.55,1.55v2.4A1.62,1.62,0,0,1,118.4,143.61Z" style="fill:#f1ecc8"/><path d="M144.93,174.71a1.51,1.51,0,0,1-1.55,1.5H129.21a1.53,1.53,0,0,1-1.54-1.5v-35a1.81,1.81,0,0,1,1.54-1.55h14.17c1,0,1.49.54,1.49,1.55v2.4a1.33,1.33,0,0,1-1.44,1.49h-8.36c-1.06,0-1.54.74-1.54,1.76v6.71a1.47,1.47,0,0,0,1.54,1.49h7.09a1.41,1.41,0,0,1,1.49,1.54v2.4a1.52,1.52,0,0,1-1.49,1.49H135a1.51,1.51,0,0,0-1.44,1.6v8.63a1.37,1.37,0,0,0,1.44,1.54h8.36a1.67,1.67,0,0,1,1.55,1.6Z" style="fill:#f1ecc8"/><path d="M172.83,176.21h-3.14a1.92,1.92,0,0,1-2-1.55l-4-12.52c-.37-1.06-.8-1.49-2-1.49h-.53c-1,0-1.55.48-1.55,1.49v12.57a1.46,1.46,0,0,1-1.49,1.5h-2.93a1.39,1.39,0,0,1-1.44-1.5v-35a1.57,1.57,0,0,1,1.49-1.55H163c7.08,0,10.87,3.79,10.87,10.87,0,4.26-1.28,7.35-3.89,9.22-.91.63-1.12,1-.85,1.91l4.74,14.49A1.11,1.11,0,0,1,172.83,176.21Zm-11.08-32.6h-.63a1.54,1.54,0,0,0-1.55,1.54v8.52a1.54,1.54,0,0,0,1.55,1.55h.63c4.48,0,6-1.55,6-5.86S166.23,143.61,161.75,143.61Z" style="fill:#f1ecc8"/><path d="M201.75,176.21h-2.82a1.72,1.72,0,0,1-1.81-1.55l-1.07-5.16a1.88,1.88,0,0,0-1.86-1.6h-5.06a2,2,0,0,0-1.76,1.6l-1,5.21a1.83,1.83,0,0,1-1.81,1.5h-2.77a1.19,1.19,0,0,1-1.17-1.55l6.76-35a1.59,1.59,0,0,1,1.76-1.44h5.06a1.72,1.72,0,0,1,1.86,1.55l7,34.94A1.24,1.24,0,0,1,201.75,176.21ZM192,147.12c-.1-.37-.53-.48-.58.06l-2.51,13.95c-.21.91.48,1.39,1.34,1.39h3c1,0,1.44-.48,1.28-1.49Z" style="fill:#f1ecc8"/><path d="M225.93,144.09h-4.31a1.54,1.54,0,0,0-1.54,1.54v29.08a1.58,1.58,0,0,1-1.55,1.5h-2.88a1.53,1.53,0,0,1-1.49-1.5V145.58a1.74,1.74,0,0,0-1.54-1.49H208.3a1.57,1.57,0,0,1-1.49-1.55v-2.87a1.57,1.57,0,0,1,1.49-1.5h17.63a1.46,1.46,0,0,1,1.5,1.5v2.92A1.46,1.46,0,0,1,225.93,144.09Z" style="fill:#f1ecc8"/><path d="M252.41,174.71a1.51,1.51,0,0,1-1.55,1.5H236.69a1.53,1.53,0,0,1-1.54-1.5v-35a1.81,1.81,0,0,1,1.54-1.55h14.17c1,0,1.49.54,1.49,1.55v2.4a1.33,1.33,0,0,1-1.44,1.49h-8.36c-1.06,0-1.54.74-1.54,1.76v6.71a1.47,1.47,0,0,0,1.54,1.49h7.09a1.41,1.41,0,0,1,1.49,1.54v2.4a1.53,1.53,0,0,1-1.49,1.49H242.5a1.51,1.51,0,0,0-1.44,1.6v8.63a1.37,1.37,0,0,0,1.44,1.54h8.36a1.67,1.67,0,0,1,1.55,1.6Z" style="fill:#f1ecc8"/></svg>